<svg width="74" height="78" viewBox="0 0 74 78" fill="none" xmlns="http://www.w3.org/2000/svg">
<g filter="url(#filter0_d)">
<path d="M69.3162 48.3385L50.8467 29.7337L52.8966 19.6373C53.4255 19.8438 53.9878 19.9517 54.5556 19.9558H54.5696C57.1776 19.9866 59.3169 17.8974 59.3478 15.2893C59.3787 12.6812 57.2894 10.542 54.6813 10.5111C52.0732 10.4803 49.934 12.5695 49.903 15.1776C49.8965 15.7357 49.9888 16.2905 50.1759 16.8163L39.3259 18.1405L21.6276 0.35C21.4104 0.128479 21.1141 0.00247917 20.8039 0C20.4976 0.00160417 20.2044 0.123521 19.9872 0.3395L16.6786 3.6295C16.2231 4.08508 16.2231 4.82358 16.6786 5.27917L18.4589 7.08517C11.5616 19.7681 13.8018 35.4741 23.9702 45.7228C24.0636 45.8121 24.1718 45.8843 24.2899 45.9363C24.2164 46.3311 24.178 46.7317 24.1756 47.1333V60.6667H10.1756C6.95556 60.6705 4.34602 63.28 4.34222 66.5V68.8333C4.34222 69.4776 4.8646 70 5.50889 70H59.1756C59.8199 70 60.3422 69.4776 60.3422 68.8333V66.5C60.3384 63.28 57.7289 60.6705 54.5089 60.6667H40.5089V54.6688C42.7021 55.1288 44.9367 55.3633 47.1776 55.3688C52.5547 55.363 57.8463 54.0225 62.5776 51.4675L64.3672 53.2677C64.5844 53.4892 64.8807 53.6152 65.1909 53.6177C65.4971 53.6161 65.7904 53.4941 66.0076 53.2782L69.3162 49.9882C69.7717 49.5326 69.7717 48.7941 69.3162 48.3385ZM52.9246 13.6348C53.8382 12.726 55.3156 12.7301 56.2243 13.6437C57.1332 14.5574 57.1291 16.0348 56.2154 16.9435C55.7781 17.3785 55.1863 17.6226 54.5694 17.6225H54.5624C53.2738 17.6158 52.2345 16.5658 52.2412 15.2771C52.2444 14.6602 52.4917 14.0699 52.9291 13.6348H52.9246ZM50.1782 21.301L48.8692 27.7445L46.2979 25.158L50.1782 21.301ZM48.8529 19.3282L44.6529 23.5037L41.4037 20.237L48.8529 19.3282ZM54.5089 63C56.4419 63 58.0089 64.567 58.0089 66.5V67.6667H6.67556V66.5C6.67556 64.567 8.24254 63 10.1756 63H54.5089ZM38.1756 58.3333V60.6667H26.5089V58.3333H38.1756ZM26.5089 56V47.1333C26.5089 44.303 29.1257 42 32.3422 42C35.5587 42 38.1756 44.303 38.1756 47.1333V56H26.5089ZM40.5089 52.29V47.1333C40.5089 43.0162 36.8456 39.6667 32.3422 39.6667C29.4305 39.622 26.7078 41.1041 25.1649 43.5738C16.2886 34.2249 14.2898 20.2875 20.1805 8.82073L60.8719 49.7455C54.5885 52.9419 47.3857 53.8418 40.5089 52.29ZM65.2037 50.7943L63.5599 49.1412L20.7922 6.11567L19.1414 4.46133L20.7922 2.81633L38.1499 20.272C38.1581 20.272 38.1627 20.2872 38.1709 20.293L66.8592 49.1493L65.2037 50.7943Z" fill="#212121"/>
<path d="M32.3527 44.3333H32.3422C30.4092 44.3304 28.8399 45.895 28.837 47.8281C28.8341 49.7611 30.3987 51.3304 32.3317 51.3333H32.3422C34.2752 51.3362 35.8446 49.7716 35.8475 47.8386C35.8504 45.9055 34.2857 44.3362 32.3527 44.3333ZM33.1694 48.6605C32.9498 48.8789 32.6521 49.0012 32.3422 49C31.6979 48.9966 31.1783 48.4716 31.1817 47.8273C31.1833 47.5189 31.307 47.2237 31.5256 47.0062C31.7427 46.7902 32.036 46.6683 32.3422 46.6667C32.9865 46.67 33.5061 47.195 33.5028 47.8393C33.5012 48.1477 33.3775 48.4429 33.1589 48.6605H33.1694Z" fill="#2196F3"/>
</g>
<defs>
<filter id="filter0_d" x="-2" y="0" width="78" height="78" filterUnits="userSpaceOnUse" color-interpolation-filters="sRGB">
<feFlood flood-opacity="0" result="BackgroundImageFix"/>
<feColorMatrix in="SourceAlpha" type="matrix" values="0 0 0 0 0 0 0 0 0 0 0 0 0 0 0 0 0 0 127 0"/>
<feOffset dy="4"/>
<feGaussianBlur stdDeviation="2"/>
<feColorMatrix type="matrix" values="0 0 0 0 0 0 0 0 0 0 0 0 0 0 0 0 0 0 0.25 0"/>
<feBlend mode="normal" in2="BackgroundImageFix" result="effect1_dropShadow"/>
<feBlend mode="normal" in="SourceGraphic" in2="effect1_dropShadow" result="shape"/>
</filter>
</defs>
</svg>
